<?xml version="1.0" standalone="no"?><!DOCTYPE svg PUBLIC "-//W3C//DTD SVG 1.1//EN" "http://www.w3.org/Graphics/SVG/1.1/DTD/svg11.dtd"><svg t="1704172596686" class="icon" viewBox="0 0 1025 1024" version="1.1" xmlns="http://www.w3.org/2000/svg" p-id="6035" xmlns:xlink="http://www.w3.org/1999/xlink" width="200.1953125" height="200"><path d="M335.908571 164.205714h99.657143c9.874286 0 18.102857 8.045714 18.102857 18.102857v30.902858c0 9.874286 8.045714 18.102857 18.102858 18.102857h60.16c9.874286 0 18.102857-8.045714 18.102857-18.102857v-31.085715c0-9.874286 8.045714-18.102857 18.102857-18.102857h99.474286c9.874286 0 18.102857-8.228571 18.102857-18.102857V104.777143c0-9.874286-8.045714-18.102857-18.102857-18.102857H335.908571c-9.874286 0-18.102857 8.045714-18.102857 18.102857v41.142857c0 10.057143 8.045714 18.285714 18.102857 18.285714z" fill="#BDE0FF" p-id="6036"></path><path d="M1006.994286 407.588571h-41.142857c-9.874286 0-18.102857 8.045714-18.102858 18.102858v17.737142c0 9.874286-8.228571 18.102857-18.102857 18.102858h-39.862857c-9.874286 0-18.102857-8.045714-18.102857-18.102858V402.285714c0-9.874286-8.045714-18.102857-18.102857-18.102857H783.177143c-9.874286 0-23.405714-6.217143-29.988572-13.531428l-58.331428-66.742858c-6.765714-7.497143-20.114286-13.531429-30.171429-13.531428H327.314286c-9.874286 0-23.222857 6.4-29.44 14.08l-82.468572 102.4c-6.4 7.862857-19.565714 14.08-29.44 14.08h-18.285714c-9.874286 0-18.102857 8.228571-18.102857 18.102857v86.308571c0 9.874286-8.045714 18.102857-18.102857 18.102858H95.451429c-9.874286 0-18.102857-8.045714-18.102858-18.102858v-99.474285c0-9.874286-8.228571-18.102857-18.102857-18.102857H18.102857c-9.874286 0-18.102857 8.045714-18.102857 18.102857V757.028571c0 9.874286 8.045714 18.102857 18.102857 18.102858h41.142857c9.874286 0 18.102857-8.045714 18.102857-18.102858v-99.474285c0-9.874286 8.045714-18.102857 18.102858-18.102857h36.022857c9.874286 0 18.102857 8.045714 18.102857 18.102857v86.125714c0 10.057143 8.228571 18.285714 18.102857 18.285714h52.48c9.874286 0 23.771429 5.851429 30.537143 13.165715l90.514286 96.548571c6.948571 7.314286 20.48 13.165714 30.354285 13.165714h357.851429c9.874286 0 23.588571-6.217143 30.171428-13.531428l100.022858-111.177143c6.765714-7.497143 20.297143-13.531429 30.171428-13.531429h39.862857c9.874286 0 18.102857 6.582857 18.102857 14.262857 0 8.045714 8.045714 14.262857 18.102858 14.262858h41.142857c9.874286 0 18.102857-8.228571 18.102857-18.102858V425.508571c0-9.874286-8.228571-17.92-18.102857-17.92z" fill="#3A78E9" p-id="6037"></path><path d="M639.451429 623.542857l-165.668572 148.662857c-15.725714 14.08-20.662857 10.24-10.971428-8.594285l23.405714-45.348572c9.508571-18.834286 2.377143-42.605714-16.274286-52.845714L435.748571 646.4c-18.468571-10.057143-32.182857-35.84-30.72-56.685714l10.057143-134.948572c1.645714-21.028571 20.297143-38.217143 41.142857-38.217143h132.022858c21.211429 0 30.171429 14.994286 20.114285 33.645715l-62.354285 113.92c-10.24 18.651429-1.28 33.828571 19.931428 33.828571H629.577143c21.211429 0 25.6 11.52 9.874286 25.6z" fill="#BDE0FF" p-id="6038"></path></svg>