<svg xmlns="http://www.w3.org/2000/svg" data-name="Layer 1" width="220" height="306" style=""><rect id="backgroundrect" width="100%" height="100%" x="0" y="0" fill="none" stroke="none"/><defs><style>.cls-1{fill:#2a7de1;}</style></defs><title>Logo_collection</title><g class="currentLayer" style=""><title>Layer 1</title><path class="cls-1" d="M217.8800219726562,114.6950109863281 c0.11000000000000001,-0.07 0.24000000000000002,-0.1 0.35000000000000003,-0.18000000000000002 s0.08000000000000002,-0.09000000000000002 0.12000000000000001,-0.12000000000000001 s0.21000000000000002,-0.2 0.31000000000000005,-0.30000000000000004 a5.57,5.57 0 0 0 0.55,-0.6500000000000001 c0.09000000000000002,-0.12000000000000001 0.17,-0.25 0.25,-0.38000000000000006 a5.63,5.63 0 0 0 0.36000000000000004,-0.79 c0,-0.13 0.1,-0.25 0.14,-0.38000000000000006 a5,5 0 0 0 0.18000000000000002,-1.28 V48.70501098632812 a5,5 0 0 0 -0.26,-1.48 l-0.12000000000000001,-0.35000000000000003 a4.84,4.84 0 0 0 -0.7200000000000001,-1.27 l0,0 a5.54,5.54 0 0 0 -0.77,-0.7600000000000001 c-0.1,-0.07 -0.21000000000000002,-0.12000000000000001 -0.31000000000000005,-0.18000000000000002 a2.23,2.23 0 0 0 -0.33000000000000007,-0.2 a4.69,4.69 0 0 0 -1.3800000000000001,-0.55 h0 L5.950021972656259,0.105010986328125 a4.91,4.91 0 0 0 -5.92,4.82 v51.53 a4.92,4.92 0 0 0 3.6900000000000004,4.77 L71.21002197265625,78.60501098632812 a0.56,0.56 0 0 1 0,1.08 l-67.49,16.9 c-0.07,0 -0.12000000000000001,0.06000000000000001 -0.19000000000000003,0.08000000000000002 a5.39,5.39 0 0 0 -1.1,0.48000000000000004 l-0.30000000000000004,0.17 s-0.1,0.05000000000000001 -0.14,0.09000000000000002 a4.42,4.42 0 0 0 -0.9,0.8800000000000001 c-0.06000000000000001,0.07 -0.1,0.15000000000000002 -0.15000000000000002,0.22000000000000003 a4.54,4.54 0 0 0 -0.56,1 c-0.05000000000000001,0.12000000000000001 -0.1,0.24000000000000002 -0.14,0.37000000000000005 a4.94,4.94 0 0 0 -0.24000000000000002,1.44 V207.78501098632813 A4.91,4.91 0 0 0 0.21002197265625,209.10501098632812 c0,0.14 0.11000000000000001,0.27 0.16000000000000003,0.41000000000000003 a5.68,5.68 0 0 0 0.37000000000000005,0.79 c0.09000000000000002,0.15000000000000002 0.2,0.28 0.30000000000000004,0.42000000000000004 a5,5 0 0 0 0.53,0.6000000000000001 a3.54,3.54 0 0 0 0.42000000000000004,0.35000000000000003 a2.48,2.48 0 0 0 0.30000000000000004,0.25 a3.49,3.49 0 0 0 0.3400000000000001,0.15000000000000002 c0.11000000000000001,0.06000000000000001 0.2,0.15000000000000002 0.31000000000000005,0.2 L213.21002197265625,305.52501098632814 a4.83,4.83 0 0 0 2,0.43000000000000005 a4.93,4.93 0 0 0 4.92,-4.93 V165.10501098632812 a4.91,4.91 0 0 0 -3.49,-4.7 L159.21002197265625,142.97501098632813 a0.56,0.56 0 0 1 -0.07,-1 L217.2800219726563,115.10501098632812 A4.74,4.74 0 0 0 217.8800219726562,114.6950109863281 zm-102.4,-35.94 l93,-23.29 a1.46,1.46 0 0 1 1.81,1.42 v45.5 a1.45,1.45 0 0 1 -1.82,1.4100000000000001 l-93,-24 A0.56,0.56 0 0 1 115.48002197265623,78.75501098632813 zm-105.61,-27 V12.385010986328126 a1.1600000000000001,1.1600000000000001 0 0 1 1.4,-1.1400000000000001 l181.17,37.75 a0.17,0.17 0 0 1 0,0.3400000000000001 l-96.56,24.18 a10.24,10.24 0 0 1 -5,0 l-80.14,-20.65 A1.17,1.17 0 0 1 9.870021972656275,51.71501098632814 zm119,93.37 L11.520021972656252,199.32501098632815 a1.1600000000000001,1.1600000000000001 0 0 1 -1.6500000000000001,-1.05 V109.55501098632811 a1.1600000000000001,1.1600000000000001 0 0 1 1.5,-1.11 l117.46,35.6 A0.56,0.56 0 0 1 128.90002197265625,145.10501098632812 zm81.39,24.51 V291.6750109863281 a1.1600000000000001,1.1600000000000001 0 0 1 -1.6300000000000001,1.06 L19.21002197265625,208.73501098632812 a1.17,1.17 0 0 1 0,-2.12 l121.69,-56.23 a10.2,10.2 0 0 1 7.21,-0.5 l61.36,18.6 A1.1600000000000001,1.1600000000000001 0 0 1 210.2900219726563,169.59501098632813 zm-185.62,-68.1 l66.17,-16.57 a10.08,10.08 0 0 1 5,0 l103.81,26.75 a0.36000000000000004,0.36000000000000004 0 0 1 0.06000000000000001,0.6700000000000002 L147.21002197265625,136.6350109863281 a10.17,10.17 0 0 1 -7.2,0.5 L24.650021972656248,102.18501098632811 A0.36000000000000004,0.36000000000000004 0 0 1 24.67002197265623,101.49501098632811 z" id="svg_1"/></g></svg>