<?xml version="1.0" standalone="no"?><!DOCTYPE svg PUBLIC "-//W3C//DTD SVG 1.1//EN" "http://www.w3.org/Graphics/SVG/1.1/DTD/svg11.dtd"><svg t="1704165628460" class="icon" viewBox="0 0 1908 1024" version="1.1" xmlns="http://www.w3.org/2000/svg" p-id="4242" xmlns:xlink="http://www.w3.org/1999/xlink" width="372.65625" height="200"><path d="M400.290909 926.254545c-113.260606-27.151515-226.521212-115.587879-274.618182-214.884848-114.812121-237.381818-13.963636-509.672727 223.418182-601.212121 168.339394-64.387879 336.678788-33.357576 491.830303 92.315151 31.806061 24.824242 68.266667 58.181818 81.454546 72.921212s25.6 27.151515 28.70303 27.151516c2.327273 0 33.357576-27.151515 69.042424-60.509091 110.933333-105.50303 211.781818-155.151515 329.69697-162.133334 260.654545-15.515152 465.454545 172.218182 465.454545 427.442425 0 128-38.012121 223.418182-123.345454 307.2-83.781818 83.006061-187.733333 124.121212-318.060606 124.121212-142.739394 0-268.412121-57.406061-387.103031-178.424243l-41.115151-41.890909-44.218182 43.442424c-134.206061 129.551515-239.709091 177.648485-384.775758 176.09697-38.787879 0-90.763636-5.430303-116.363636-11.636364z m220.315152-272.290909c40.339394-20.169697 155.151515-121.018182 155.151515-135.757575 0-17.842424-121.018182-131.878788-159.806061-150.49697-83.781818-41.115152-183.078788-19.393939-231.951515 50.424242-20.945455 30.254545-23.272727 38.787879-23.272727 93.866667s2.327273 63.612121 23.272727 93.866667c49.648485 70.593939 150.49697 90.763636 236.606061 48.096969z m820.751515 9.309091c60.509091-25.6 94.642424-79.127273 94.642424-151.272727 0-100.848485-66.715152-164.460606-172.218182-163.684848-65.163636 0-106.278788 22.49697-184.630303 100.072727l-65.939394 65.163636 65.939394 63.612121c36.460606 34.909091 81.454545 71.369697 100.848485 80.678788 41.890909 20.945455 117.915152 23.272727 161.357576 5.430303z" fill="#484848" p-id="4243"></path><path d="M1078.30303 839.369697c-27.927273-20.945455-69.042424-56.630303-91.539394-79.127273l-40.339394-41.115151-17.842424 14.739394c-10.084848 7.757576-6.981818 4.654545 6.206061-8.533334 13.187879-12.412121 58.181818-64.387879 100.072727-114.036363 41.890909-50.424242 77.575758-91.539394 79.90303-91.539394s32.581818 27.151515 67.490909 60.509091c34.909091 32.581818 76.8 66.715152 93.866667 75.248485l34.133333 17.066666c4.654545 2.327273-166.012121 203.248485-173.769697 203.248485-3.878788 0.775758-30.254545-16.290909-58.181818-36.460606zM193.163636 809.115152l-26.375757-29.478788 29.478788 26.375757c26.375758 25.6 32.581818 31.806061 26.375757 31.806061-1.551515 0-14.739394-13.187879-29.478788-28.70303zM506.569697 677.236364c11.636364-1.551515 30.254545-1.551515 42.666667 0 11.636364 1.551515 1.551515 3.10303-21.721212 3.10303s-33.357576-1.551515-20.945455-3.10303zM1352.145455 677.236364c11.636364-1.551515 28.70303-1.551515 38.787878 0 9.309091 1.551515 0 3.10303-21.721212 3.10303-20.945455 0-29.478788-1.551515-17.066666-3.10303zM705.939394 595.006061c0-1.551515 11.636364-12.412121 25.6-25.6l24.824242-22.49697-22.496969 25.6c-21.721212 23.272727-27.927273 28.70303-27.927273 22.49697zM1538.327273 512c0-19.393939 1.551515-27.151515 3.10303-17.066667 1.551515 9.309091 1.551515 24.824242 0 34.909091-1.551515 9.309091-3.10303 1.551515-3.10303-17.842424zM718.351515 452.266667c-35.684848-38.012121-76.024242-71.369697-98.521212-83.006061-20.945455-10.084848-35.684848-20.169697-31.806061-21.721212 7.757576-3.10303 161.357576-186.181818 165.236364-197.818182 4.654545-13.187879 74.472727 36.460606 143.515152 101.624243l58.957575 55.854545-88.436363 104.727273-87.660606 103.951515-61.284849-63.612121zM1179.151515 438.30303c14.739394-14.739394 27.927273-27.151515 30.254546-27.151515s-7.757576 12.412121-22.49697 27.151515-27.927273 27.151515-30.254546 27.151515 7.757576-12.412121 22.49697-27.151515z" fill="#01D1C1" p-id="4244"></path><path d="M193.163636 809.115152l-26.375757-29.478788 29.478788 26.375757c26.375758 25.6 32.581818 31.806061 26.375757 31.806061-1.551515 0-14.739394-13.187879-29.478788-28.70303zM506.569697 677.236364c11.636364-1.551515 30.254545-1.551515 42.666667 0 11.636364 1.551515 1.551515 3.10303-21.721212 3.10303s-33.357576-1.551515-20.945455-3.10303zM1352.145455 677.236364c11.636364-1.551515 28.70303-1.551515 38.787878 0 9.309091 1.551515 0 3.10303-21.721212 3.10303-20.945455 0-29.478788-1.551515-17.066666-3.10303zM705.939394 595.006061c0-1.551515 11.636364-12.412121 25.6-25.6l24.824242-22.49697-22.496969 25.6c-21.721212 23.272727-27.927273 28.70303-27.927273 22.49697zM1538.327273 512c0-19.393939 1.551515-27.151515 3.10303-17.066667 1.551515 9.309091 1.551515 24.824242 0 34.909091-1.551515 9.309091-3.10303 1.551515-3.10303-17.842424zM1179.151515 438.30303c14.739394-14.739394 27.927273-27.151515 30.254546-27.151515s-7.757576 12.412121-22.49697 27.151515-27.927273 27.151515-30.254546 27.151515 7.757576-12.412121 22.49697-27.151515z" fill="#A1A1A1" p-id="4245"></path></svg>